<svg width="20" height="21" viewBox="0 0 20 21" fill="none" xmlns="http://www.w3.org/2000/svg">
<path d="M17.6932 0.183418C16.8892 0.363716 16.0815 0.54486 15.7811 1.0415L13.4564 5.41438L0.970442 8.21449L0.464769 9.61174L10.0198 10.4659L8.39923 14.2516L4.77574 15.0642L3.8662 16.552L6.4804 16.8203L6.77869 18.0372C6.91231 18.4686 7.38111 18.7567 7.7812 18.6669L8.98903 18.3961L10.3896 20.6497L11.2991 19.1619L10.4042 15.511L13.0273 12.3551L18.0346 20.6483L19.0439 19.5674L15.9612 6.99103L18.7896 2.9345C19.0937 2.43701 18.8952 1.62698 18.6957 0.81315C18.5969 0.410037 18.0933 0.0936924 17.6932 0.183418Z" fill="#CBCED9"/>
</svg>
