<svg width="21" height="20" viewBox="0 0 21 20" fill="none" xmlns="http://www.w3.org/2000/svg">
<g clip-path="url(#clip0_1_488)">
<path d="M5.61389 1.25C8.3743 1.25 10.6101 3.44375 10.6101 6.15C10.6101 3.44375 12.8459 1.25 15.6063 1.25C18.3667 1.25 20.6025 3.44375 20.6025 6.15C20.6025 10.2288 16.5631 11.6675 11.0997 18.16C11.0396 18.2313 10.9646 18.2886 10.88 18.3279C10.7955 18.3672 10.7034 18.3876 10.6101 18.3876C10.5169 18.3876 10.4247 18.3672 10.3402 18.3279C10.2556 18.2886 10.1806 18.2313 10.1205 18.16C4.65711 11.6675 0.617676 10.2288 0.617676 6.15C0.617676 3.44375 2.85348 1.25 5.61389 1.25Z" fill="#F02323"/>
</g>
<defs>
<clipPath id="clip0_1_488">
<rect width="19.9849" height="20" fill="white" transform="translate(0.617676)"/>
</clipPath>
</defs>
</svg>
