<svg width="21" height="19" viewBox="0 0 21 19" fill="none" xmlns="http://www.w3.org/2000/svg">
<path fill-rule="evenodd" clip-rule="evenodd" d="M10.6101 7.12436L11.7268 4.77557C12.004 4.19396 12.4849 3.35764 13.1657 2.68149C13.8352 2.01585 14.6371 1.5629 15.6063 1.5629C17.6997 1.5629 19.3535 3.30381 19.3535 5.39658C19.3535 6.9865 18.6615 8.10903 17.0202 9.82106C16.5993 10.2596 16.1197 10.7335 15.5888 11.2561C14.2049 12.6215 12.4837 14.3204 10.6101 16.5917C8.73652 14.3204 7.01533 12.6215 5.63138 11.2561C5.10053 10.7335 4.61964 10.2583 4.19996 9.82106C2.55871 8.10903 1.86673 6.9865 1.86673 5.39658C1.86673 3.30381 3.52048 1.5629 5.61389 1.5629C6.58316 1.5629 7.38505 2.01585 8.05454 2.68149C8.73528 3.35764 9.21616 4.19396 9.49345 4.77557L10.6101 7.12436ZM11.0997 18.0109C11.0396 18.0858 10.9646 18.146 10.88 18.1873C10.7955 18.2286 10.7034 18.25 10.6101 18.25C10.5169 18.25 10.4247 18.2286 10.3402 18.1873C10.2556 18.146 10.1806 18.0858 10.1205 18.0109C8.12074 15.5138 6.31086 13.7283 4.82074 12.2591C2.24145 9.7134 0.617676 8.11297 0.617676 5.39658C0.617676 2.55414 2.85348 0.25 5.61389 0.25C7.61238 0.25 9.01007 1.62855 9.86567 2.88631C10.1904 3.36552 10.4377 3.82635 10.6101 4.18871C10.8262 3.73519 11.0751 3.29978 11.3545 2.88631C12.2101 1.62723 13.6078 0.25 15.6063 0.25C18.3667 0.25 20.6025 2.55414 20.6025 5.39658C20.6025 8.11297 18.9788 9.7134 16.3995 12.2591C14.9093 13.7296 13.0995 15.5151 11.0997 18.0096V18.0109Z" fill="#192144"/>
</svg>
